<mxfile host="app.diagrams.net" modified="2023-04-27T04:01:09.527Z" agent="Mozilla/5.0 (Windows NT 10.0; Win64; x64; rv:109.0) Gecko/20100101 Firefox/112.0" etag="kgJEmPmKm4tB46LgWljO" version="21.2.3" type="github">
  <diagram name="Página-1" id="QVLnC4AnkYZCNRtGmAld">
    <mxGraphModel dx="1179" dy="-712" grid="1" gridSize="10" guides="1" tooltips="1" connect="1" arrows="1" fold="1" page="1" pageScale="1" pageWidth="827" pageHeight="1169" math="0" shadow="0">
      <root>
        <mxCell id="0" />
        <mxCell id="1" parent="0" />
        <mxCell id="s84qFgu41w__YCTPZ6JV-1" value="Usuario" style="swimlane;fontStyle=0;childLayout=stackLayout;horizontal=1;startSize=26;fillColor=none;horizontalStack=0;resizeParent=1;resizeParentMax=0;resizeLast=0;collapsible=1;marginBottom=0;whiteSpace=wrap;html=1;" parent="1" vertex="1">
          <mxGeometry x="914" y="1214" width="140" height="206" as="geometry" />
        </mxCell>
        <mxCell id="s84qFgu41w__YCTPZ6JV-2" value="- númeroTel: int" style="text;strokeColor=none;fillColor=none;align=left;verticalAlign=top;spacingLeft=4;spacingRight=4;overflow=hidden;rotatable=0;points=[[0,0.5],[1,0.5]];portConstraint=eastwest;whiteSpace=wrap;html=1;" parent="s84qFgu41w__YCTPZ6JV-1" vertex="1">
          <mxGeometry y="26" width="140" height="26" as="geometry" />
        </mxCell>
        <mxCell id="s84qFgu41w__YCTPZ6JV-3" value="- nombre: string" style="text;strokeColor=none;fillColor=none;align=left;verticalAlign=top;spacingLeft=4;spacingRight=4;overflow=hidden;rotatable=0;points=[[0,0.5],[1,0.5]];portConstraint=eastwest;whiteSpace=wrap;html=1;" parent="s84qFgu41w__YCTPZ6JV-1" vertex="1">
          <mxGeometry y="52" width="140" height="26" as="geometry" />
        </mxCell>
        <mxCell id="s84qFgu41w__YCTPZ6JV-4" value="- fecreg: DtFechaHora" style="text;strokeColor=none;fillColor=none;align=left;verticalAlign=top;spacingLeft=4;spacingRight=4;overflow=hidden;rotatable=0;points=[[0,0.5],[1,0.5]];portConstraint=eastwest;whiteSpace=wrap;html=1;" parent="s84qFgu41w__YCTPZ6JV-1" vertex="1">
          <mxGeometry y="78" width="140" height="32" as="geometry" />
        </mxCell>
        <mxCell id="s84qFgu41w__YCTPZ6JV-5" value="- imagen: DtImg" style="text;strokeColor=none;fillColor=none;align=left;verticalAlign=top;spacingLeft=4;spacingRight=4;overflow=hidden;rotatable=0;points=[[0,0.5],[1,0.5]];portConstraint=eastwest;whiteSpace=wrap;html=1;" parent="s84qFgu41w__YCTPZ6JV-1" vertex="1">
          <mxGeometry y="110" width="140" height="32" as="geometry" />
        </mxCell>
        <mxCell id="s84qFgu41w__YCTPZ6JV-6" value="- descripcion: string" style="text;strokeColor=none;fillColor=none;align=left;verticalAlign=top;spacingLeft=4;spacingRight=4;overflow=hidden;rotatable=0;points=[[0,0.5],[1,0.5]];portConstraint=eastwest;whiteSpace=wrap;html=1;" parent="s84qFgu41w__YCTPZ6JV-1" vertex="1">
          <mxGeometry y="142" width="140" height="32" as="geometry" />
        </mxCell>
        <mxCell id="s84qFgu41w__YCTPZ6JV-7" value="- ultcone: DtFechaHora" style="text;strokeColor=none;fillColor=none;align=left;verticalAlign=top;spacingLeft=4;spacingRight=4;overflow=hidden;rotatable=0;points=[[0,0.5],[1,0.5]];portConstraint=eastwest;whiteSpace=wrap;html=1;" parent="s84qFgu41w__YCTPZ6JV-1" vertex="1">
          <mxGeometry y="174" width="140" height="32" as="geometry" />
        </mxCell>
        <mxCell id="5pbb-u6Oynbn8hx0rVK8-28" value="" style="endArrow=none;html=1;rounded=0;exitX=0.204;exitY=0.996;exitDx=0;exitDy=0;exitPerimeter=0;entryX=0.001;entryY=0.737;entryDx=0;entryDy=0;entryPerimeter=0;" edge="1" parent="s84qFgu41w__YCTPZ6JV-1" source="s84qFgu41w__YCTPZ6JV-7" target="s84qFgu41w__YCTPZ6JV-6">
          <mxGeometry width="50" height="50" relative="1" as="geometry">
            <mxPoint x="-94" y="246" as="sourcePoint" />
            <mxPoint x="-4" y="166" as="targetPoint" />
            <Array as="points">
              <mxPoint x="29" y="226" />
              <mxPoint x="-94" y="226" />
              <mxPoint x="-94" y="166" />
            </Array>
          </mxGeometry>
        </mxCell>
        <mxCell id="s84qFgu41w__YCTPZ6JV-9" value="&lt;div&gt;&amp;lt;&amp;lt;abstract&amp;gt;&amp;gt;&lt;br&gt;&lt;/div&gt;&lt;div&gt;&lt;i&gt;Conversacion&lt;/i&gt;&lt;/div&gt;" style="swimlane;fontStyle=0;childLayout=stackLayout;horizontal=1;startSize=26;fillColor=none;horizontalStack=0;resizeParent=1;resizeParentMax=0;resizeLast=0;collapsible=1;marginBottom=0;whiteSpace=wrap;html=1;" parent="1" vertex="1">
          <mxGeometry x="480" y="1314" width="140" height="52" as="geometry" />
        </mxCell>
        <mxCell id="s84qFgu41w__YCTPZ6JV-10" value="activo?:bool" style="text;strokeColor=none;fillColor=none;align=left;verticalAlign=top;spacingLeft=4;spacingRight=4;overflow=hidden;rotatable=0;points=[[0,0.5],[1,0.5]];portConstraint=eastwest;whiteSpace=wrap;html=1;" parent="s84qFgu41w__YCTPZ6JV-9" vertex="1">
          <mxGeometry y="26" width="140" height="26" as="geometry" />
        </mxCell>
        <mxCell id="s84qFgu41w__YCTPZ6JV-11" value="&lt;div&gt;&amp;lt;&amp;lt;abstract&amp;gt;&amp;gt;&lt;br&gt;&lt;/div&gt;&lt;div&gt;&lt;i&gt;Mensaje&lt;/i&gt;&lt;/div&gt;" style="swimlane;fontStyle=0;childLayout=stackLayout;horizontal=1;startSize=26;fillColor=none;horizontalStack=0;resizeParent=1;resizeParentMax=0;resizeLast=0;collapsible=1;marginBottom=0;whiteSpace=wrap;html=1;" parent="1" vertex="1">
          <mxGeometry x="892" y="1720" width="184" height="78" as="geometry" />
        </mxCell>
        <mxCell id="s84qFgu41w__YCTPZ6JV-12" value="- código: string" style="text;strokeColor=none;fillColor=none;align=left;verticalAlign=top;spacingLeft=4;spacingRight=4;overflow=hidden;rotatable=0;points=[[0,0.5],[1,0.5]];portConstraint=eastwest;whiteSpace=wrap;html=1;" parent="s84qFgu41w__YCTPZ6JV-11" vertex="1">
          <mxGeometry y="26" width="184" height="26" as="geometry" />
        </mxCell>
        <mxCell id="s84qFgu41w__YCTPZ6JV-13" value="- fecyhora: DtFechaHora" style="text;strokeColor=none;fillColor=none;align=left;verticalAlign=top;spacingLeft=4;spacingRight=4;overflow=hidden;rotatable=0;points=[[0,0.5],[1,0.5]];portConstraint=eastwest;whiteSpace=wrap;html=1;" parent="s84qFgu41w__YCTPZ6JV-11" vertex="1">
          <mxGeometry y="52" width="184" height="26" as="geometry" />
        </mxCell>
        <mxCell id="s84qFgu41w__YCTPZ6JV-15" value="&lt;div&gt;&lt;br&gt;&lt;/div&gt;&lt;div&gt;Grupal&lt;br&gt;&lt;/div&gt;&lt;div&gt;&lt;br&gt;&lt;/div&gt;" style="swimlane;fontStyle=0;childLayout=stackLayout;horizontal=1;startSize=26;fillColor=none;horizontalStack=0;resizeParent=1;resizeParentMax=0;resizeLast=0;collapsible=1;marginBottom=0;whiteSpace=wrap;html=1;" parent="1" vertex="1">
          <mxGeometry x="150" y="1208" width="160" height="104" as="geometry" />
        </mxCell>
        <mxCell id="s84qFgu41w__YCTPZ6JV-16" value="- nombre: string" style="text;strokeColor=none;fillColor=none;align=left;verticalAlign=top;spacingLeft=4;spacingRight=4;overflow=hidden;rotatable=0;points=[[0,0.5],[1,0.5]];portConstraint=eastwest;whiteSpace=wrap;html=1;" parent="s84qFgu41w__YCTPZ6JV-15" vertex="1">
          <mxGeometry y="26" width="160" height="26" as="geometry" />
        </mxCell>
        <mxCell id="s84qFgu41w__YCTPZ6JV-17" value="- imagen: DtImg" style="text;strokeColor=none;fillColor=none;align=left;verticalAlign=top;spacingLeft=4;spacingRight=4;overflow=hidden;rotatable=0;points=[[0,0.5],[1,0.5]];portConstraint=eastwest;whiteSpace=wrap;html=1;" parent="s84qFgu41w__YCTPZ6JV-15" vertex="1">
          <mxGeometry y="52" width="160" height="26" as="geometry" />
        </mxCell>
        <mxCell id="s84qFgu41w__YCTPZ6JV-18" value="- fecyhora: DtFechaHora" style="text;strokeColor=none;fillColor=none;align=left;verticalAlign=top;spacingLeft=4;spacingRight=4;overflow=hidden;rotatable=0;points=[[0,0.5],[1,0.5]];portConstraint=eastwest;whiteSpace=wrap;html=1;" parent="s84qFgu41w__YCTPZ6JV-15" vertex="1">
          <mxGeometry y="78" width="160" height="26" as="geometry" />
        </mxCell>
        <mxCell id="s84qFgu41w__YCTPZ6JV-20" value="Estado" style="swimlane;fontStyle=0;childLayout=stackLayout;horizontal=1;startSize=26;fillColor=none;horizontalStack=0;resizeParent=1;resizeParentMax=0;resizeLast=0;collapsible=1;marginBottom=0;whiteSpace=wrap;html=1;" parent="1" vertex="1">
          <mxGeometry x="1270" y="1302" width="170" height="80" as="geometry" />
        </mxCell>
        <mxCell id="s84qFgu41w__YCTPZ6JV-21" value="- texto: string" style="text;strokeColor=none;fillColor=none;align=left;verticalAlign=top;spacingLeft=4;spacingRight=4;overflow=hidden;rotatable=0;points=[[0,0.5],[1,0.5]];portConstraint=eastwest;whiteSpace=wrap;html=1;" parent="s84qFgu41w__YCTPZ6JV-20" vertex="1">
          <mxGeometry y="26" width="170" height="26" as="geometry" />
        </mxCell>
        <mxCell id="s84qFgu41w__YCTPZ6JV-22" value="- fecyhora: DtFechaHora" style="text;strokeColor=none;fillColor=none;align=left;verticalAlign=top;spacingLeft=4;spacingRight=4;overflow=hidden;rotatable=0;points=[[0,0.5],[1,0.5]];portConstraint=eastwest;whiteSpace=wrap;html=1;" parent="s84qFgu41w__YCTPZ6JV-20" vertex="1">
          <mxGeometry y="52" width="170" height="28" as="geometry" />
        </mxCell>
        <mxCell id="s84qFgu41w__YCTPZ6JV-23" value="" style="endArrow=none;html=1;edgeStyle=orthogonalEdgeStyle;rounded=0;" parent="1" target="s84qFgu41w__YCTPZ6JV-24" edge="1">
          <mxGeometry relative="1" as="geometry">
            <mxPoint x="984" y="1848" as="sourcePoint" />
            <mxPoint x="1134" y="1988" as="targetPoint" />
            <Array as="points">
              <mxPoint x="984" y="1849" />
              <mxPoint x="984" y="1928" />
              <mxPoint x="1214" y="1928" />
            </Array>
          </mxGeometry>
        </mxCell>
        <mxCell id="s84qFgu41w__YCTPZ6JV-24" value="Simple" style="swimlane;fontStyle=0;childLayout=stackLayout;horizontal=1;startSize=26;fillColor=none;horizontalStack=0;resizeParent=1;resizeParentMax=0;resizeLast=0;collapsible=1;marginBottom=0;whiteSpace=wrap;html=1;" parent="1" vertex="1">
          <mxGeometry x="1144" y="2028" width="140" height="90" as="geometry" />
        </mxCell>
        <mxCell id="s84qFgu41w__YCTPZ6JV-25" value="- texto: string" style="text;strokeColor=none;fillColor=none;align=left;verticalAlign=top;spacingLeft=4;spacingRight=4;overflow=hidden;rotatable=0;points=[[0,0.5],[1,0.5]];portConstraint=eastwest;whiteSpace=wrap;html=1;" parent="s84qFgu41w__YCTPZ6JV-24" vertex="1">
          <mxGeometry y="26" width="140" height="64" as="geometry" />
        </mxCell>
        <mxCell id="s84qFgu41w__YCTPZ6JV-31" value="Imagen" style="swimlane;fontStyle=0;childLayout=stackLayout;horizontal=1;startSize=26;fillColor=none;horizontalStack=0;resizeParent=1;resizeParentMax=0;resizeLast=0;collapsible=1;marginBottom=0;whiteSpace=wrap;html=1;" parent="1" vertex="1">
          <mxGeometry x="817.5" y="2210" width="140" height="104" as="geometry" />
        </mxCell>
        <mxCell id="s84qFgu41w__YCTPZ6JV-32" value="- formato: string" style="text;strokeColor=none;fillColor=none;align=left;verticalAlign=top;spacingLeft=4;spacingRight=4;overflow=hidden;rotatable=0;points=[[0,0.5],[1,0.5]];portConstraint=eastwest;whiteSpace=wrap;html=1;" parent="s84qFgu41w__YCTPZ6JV-31" vertex="1">
          <mxGeometry y="26" width="140" height="26" as="geometry" />
        </mxCell>
        <mxCell id="s84qFgu41w__YCTPZ6JV-33" value="- tamaño: string" style="text;strokeColor=none;fillColor=none;align=left;verticalAlign=top;spacingLeft=4;spacingRight=4;overflow=hidden;rotatable=0;points=[[0,0.5],[1,0.5]];portConstraint=eastwest;whiteSpace=wrap;html=1;" parent="s84qFgu41w__YCTPZ6JV-31" vertex="1">
          <mxGeometry y="52" width="140" height="26" as="geometry" />
        </mxCell>
        <mxCell id="s84qFgu41w__YCTPZ6JV-34" value="- texto: string" style="text;strokeColor=none;fillColor=none;align=left;verticalAlign=top;spacingLeft=4;spacingRight=4;overflow=hidden;rotatable=0;points=[[0,0.5],[1,0.5]];portConstraint=eastwest;whiteSpace=wrap;html=1;" parent="s84qFgu41w__YCTPZ6JV-31" vertex="1">
          <mxGeometry y="78" width="140" height="26" as="geometry" />
        </mxCell>
        <mxCell id="s84qFgu41w__YCTPZ6JV-36" value="Multimedia" style="swimlane;fontStyle=0;childLayout=stackLayout;horizontal=1;startSize=26;fillColor=none;horizontalStack=0;resizeParent=1;resizeParentMax=0;resizeLast=0;collapsible=1;marginBottom=0;whiteSpace=wrap;html=1;" parent="1" vertex="1">
          <mxGeometry x="905" y="2028" width="140" height="82" as="geometry" />
        </mxCell>
        <mxCell id="s84qFgu41w__YCTPZ6JV-40" value="" style="endArrow=none;html=1;edgeStyle=orthogonalEdgeStyle;rounded=0;" parent="1" source="s84qFgu41w__YCTPZ6JV-86" target="s84qFgu41w__YCTPZ6JV-41" edge="1">
          <mxGeometry relative="1" as="geometry">
            <mxPoint x="983" y="1848" as="sourcePoint" />
            <mxPoint x="744" y="1998" as="targetPoint" />
            <Array as="points">
              <mxPoint x="984" y="1848" />
              <mxPoint x="984" y="1928" />
              <mxPoint x="734" y="1928" />
            </Array>
          </mxGeometry>
        </mxCell>
        <mxCell id="s84qFgu41w__YCTPZ6JV-41" value="Contacto" style="swimlane;fontStyle=0;childLayout=stackLayout;horizontal=1;startSize=26;fillColor=none;horizontalStack=0;resizeParent=1;resizeParentMax=0;resizeLast=0;collapsible=1;marginBottom=0;whiteSpace=wrap;html=1;" parent="1" vertex="1">
          <mxGeometry x="664" y="2028" width="140" height="52" as="geometry" />
        </mxCell>
        <mxCell id="s84qFgu41w__YCTPZ6JV-44" value="" style="endArrow=none;html=1;rounded=0;exitX=0.456;exitY=0.004;exitDx=0;exitDy=0;exitPerimeter=0;" parent="1" source="s84qFgu41w__YCTPZ6JV-11" edge="1">
          <mxGeometry width="50" height="50" relative="1" as="geometry">
            <mxPoint x="946" y="1720" as="sourcePoint" />
            <mxPoint x="973" y="1420" as="targetPoint" />
          </mxGeometry>
        </mxCell>
        <mxCell id="s84qFgu41w__YCTPZ6JV-45" value="" style="triangle;whiteSpace=wrap;html=1;rotation=90;fillColor=#030203;" parent="1" vertex="1">
          <mxGeometry x="955" y="1561" width="10" height="10" as="geometry" />
        </mxCell>
        <mxCell id="s84qFgu41w__YCTPZ6JV-46" value="Envía" style="text;html=1;align=center;verticalAlign=middle;resizable=0;points=[];autosize=1;strokeColor=none;fillColor=none;rotation=90;" parent="1" vertex="1">
          <mxGeometry x="959" y="1556" width="50" height="20" as="geometry" />
        </mxCell>
        <mxCell id="s84qFgu41w__YCTPZ6JV-47" value="*" style="text;html=1;align=center;verticalAlign=middle;resizable=0;points=[];autosize=1;strokeColor=none;fillColor=none;" parent="1" vertex="1">
          <mxGeometry x="974" y="1430" width="20" height="20" as="geometry" />
        </mxCell>
        <mxCell id="s84qFgu41w__YCTPZ6JV-48" value="*" style="text;html=1;align=center;verticalAlign=middle;resizable=0;points=[];autosize=1;strokeColor=none;fillColor=none;" parent="1" vertex="1">
          <mxGeometry x="985" y="1700" width="20" height="20" as="geometry" />
        </mxCell>
        <mxCell id="s84qFgu41w__YCTPZ6JV-49" value="1" style="text;html=1;align=center;verticalAlign=middle;resizable=0;points=[];autosize=1;strokeColor=none;fillColor=none;" parent="1" vertex="1">
          <mxGeometry x="875" y="1305" width="30" height="30" as="geometry" />
        </mxCell>
        <mxCell id="s84qFgu41w__YCTPZ6JV-50" value="*" style="text;html=1;align=center;verticalAlign=middle;resizable=0;points=[];autosize=1;strokeColor=none;fillColor=none;" parent="1" vertex="1">
          <mxGeometry x="620" y="1317" width="20" height="20" as="geometry" />
        </mxCell>
        <mxCell id="s84qFgu41w__YCTPZ6JV-51" value="" style="endArrow=diamondThin;endFill=1;endSize=24;html=1;rounded=0;exitX=1.011;exitY=-0.033;exitDx=0;exitDy=0;exitPerimeter=0;entryX=0;entryY=0.5;entryDx=0;entryDy=0;" parent="1" source="s84qFgu41w__YCTPZ6JV-10" target="s84qFgu41w__YCTPZ6JV-5" edge="1">
          <mxGeometry width="160" relative="1" as="geometry">
            <mxPoint x="770" y="1550" as="sourcePoint" />
            <mxPoint x="914" y="1340" as="targetPoint" />
            <Array as="points" />
          </mxGeometry>
        </mxCell>
        <mxCell id="s84qFgu41w__YCTPZ6JV-52" value="*" style="text;html=1;align=center;verticalAlign=middle;resizable=0;points=[];autosize=1;strokeColor=none;fillColor=none;" parent="1" vertex="1">
          <mxGeometry x="1250" y="1320" width="20" height="20" as="geometry" />
        </mxCell>
        <mxCell id="s84qFgu41w__YCTPZ6JV-53" value="&lt;div&gt;1&lt;/div&gt;" style="text;html=1;align=center;verticalAlign=middle;resizable=0;points=[];autosize=1;strokeColor=none;fillColor=none;" parent="1" vertex="1">
          <mxGeometry x="1076" y="1312" width="30" height="30" as="geometry" />
        </mxCell>
        <mxCell id="s84qFgu41w__YCTPZ6JV-54" value="" style="endArrow=diamondThin;endFill=1;endSize=24;html=1;rounded=0;entryX=1;entryY=0.5;entryDx=0;entryDy=0;exitX=0;exitY=0.5;exitDx=0;exitDy=0;" parent="1" source="s84qFgu41w__YCTPZ6JV-21" target="s84qFgu41w__YCTPZ6JV-5" edge="1">
          <mxGeometry width="160" relative="1" as="geometry">
            <mxPoint x="650" y="1290" as="sourcePoint" />
            <mxPoint x="824" y="1280.31" as="targetPoint" />
          </mxGeometry>
        </mxCell>
        <mxCell id="s84qFgu41w__YCTPZ6JV-61" value="" style="triangle;whiteSpace=wrap;html=1;rotation=0;fillColor=#030203;" parent="1" vertex="1">
          <mxGeometry x="1160" y="1310" width="20" height="20" as="geometry" />
        </mxCell>
        <mxCell id="s84qFgu41w__YCTPZ6JV-62" value="Publica" style="text;html=1;align=center;verticalAlign=middle;resizable=0;points=[];autosize=1;strokeColor=none;fillColor=none;rotation=0;" parent="1" vertex="1">
          <mxGeometry x="1144" y="1282" width="60" height="20" as="geometry" />
        </mxCell>
        <mxCell id="s84qFgu41w__YCTPZ6JV-66" value="" style="triangle;whiteSpace=wrap;html=1;rotation=-180;fillColor=#030203;" parent="1" vertex="1">
          <mxGeometry x="745" y="1317" width="20" height="20" as="geometry" />
        </mxCell>
        <mxCell id="s84qFgu41w__YCTPZ6JV-67" value="Tiene" style="text;html=1;align=center;verticalAlign=middle;resizable=0;points=[];autosize=1;strokeColor=none;fillColor=none;rotation=1;" parent="1" vertex="1">
          <mxGeometry x="730" y="1288" width="50" height="20" as="geometry" />
        </mxCell>
        <mxCell id="s84qFgu41w__YCTPZ6JV-73" value="" style="endArrow=none;html=1;rounded=0;exitX=0.75;exitY=0;exitDx=0;exitDy=0;entryX=0.829;entryY=1.016;entryDx=0;entryDy=0;entryPerimeter=0;" parent="1" source="s84qFgu41w__YCTPZ6JV-11" target="s84qFgu41w__YCTPZ6JV-7" edge="1">
          <mxGeometry width="50" height="50" relative="1" as="geometry">
            <mxPoint x="1030" y="1700" as="sourcePoint" />
            <mxPoint x="1030.3400000000001" y="1452.672" as="targetPoint" />
          </mxGeometry>
        </mxCell>
        <mxCell id="s84qFgu41w__YCTPZ6JV-74" value="" style="triangle;whiteSpace=wrap;html=1;rotation=-90;fillColor=#030203;" parent="1" vertex="1">
          <mxGeometry x="1040" y="1563" width="10" height="10" as="geometry" />
        </mxCell>
        <mxCell id="s84qFgu41w__YCTPZ6JV-75" value="Recibe" style="text;html=1;align=center;verticalAlign=middle;resizable=0;points=[];autosize=1;strokeColor=none;fillColor=none;rotation=90;" parent="1" vertex="1">
          <mxGeometry x="1040" y="1556" width="60" height="30" as="geometry" />
        </mxCell>
        <mxCell id="s84qFgu41w__YCTPZ6JV-76" value="*" style="text;html=1;align=center;verticalAlign=middle;resizable=0;points=[];autosize=1;strokeColor=none;fillColor=none;" parent="1" vertex="1">
          <mxGeometry x="1024" y="1695" width="30" height="30" as="geometry" />
        </mxCell>
        <mxCell id="s84qFgu41w__YCTPZ6JV-77" value="*" style="text;html=1;align=center;verticalAlign=middle;resizable=0;points=[];autosize=1;strokeColor=none;fillColor=none;" parent="1" vertex="1">
          <mxGeometry x="1025" y="1430" width="20" height="20" as="geometry" />
        </mxCell>
        <mxCell id="s84qFgu41w__YCTPZ6JV-81" value="Privada" style="swimlane;fontStyle=0;childLayout=stackLayout;horizontal=1;startSize=26;fillColor=none;horizontalStack=0;resizeParent=1;resizeParentMax=0;resizeLast=0;collapsible=1;marginBottom=0;whiteSpace=wrap;html=1;" parent="1" vertex="1">
          <mxGeometry x="150" y="1434" width="170" height="66" as="geometry" />
        </mxCell>
        <mxCell id="s84qFgu41w__YCTPZ6JV-82" value="" style="triangle;whiteSpace=wrap;html=1;rotation=0;" parent="1" vertex="1">
          <mxGeometry x="340" y="1330" width="20" height="26.67" as="geometry" />
        </mxCell>
        <mxCell id="s84qFgu41w__YCTPZ6JV-83" value="" style="endArrow=none;html=1;rounded=0;entryX=-0.007;entryY=0.105;entryDx=0;entryDy=0;entryPerimeter=0;exitX=1;exitY=0.5;exitDx=0;exitDy=0;" parent="1" source="s84qFgu41w__YCTPZ6JV-82" target="s84qFgu41w__YCTPZ6JV-10" edge="1">
          <mxGeometry width="50" height="50" relative="1" as="geometry">
            <mxPoint x="380" y="1343" as="sourcePoint" />
            <mxPoint x="570" y="1380" as="targetPoint" />
          </mxGeometry>
        </mxCell>
        <mxCell id="s84qFgu41w__YCTPZ6JV-84" value="" style="endArrow=none;html=1;rounded=0;entryX=0.019;entryY=-0.014;entryDx=0;entryDy=0;entryPerimeter=0;exitX=1;exitY=1;exitDx=0;exitDy=0;exitPerimeter=0;" parent="1" source="s84qFgu41w__YCTPZ6JV-16" target="s84qFgu41w__YCTPZ6JV-82" edge="1">
          <mxGeometry width="50" height="50" relative="1" as="geometry">
            <mxPoint x="330" y="1250" as="sourcePoint" />
            <mxPoint x="340" y="1310" as="targetPoint" />
            <Array as="points">
              <mxPoint x="340" y="1260" />
            </Array>
          </mxGeometry>
        </mxCell>
        <mxCell id="s84qFgu41w__YCTPZ6JV-85" value="" style="endArrow=none;html=1;edgeStyle=orthogonalEdgeStyle;rounded=0;" parent="1" target="s84qFgu41w__YCTPZ6JV-86" edge="1">
          <mxGeometry relative="1" as="geometry">
            <mxPoint x="983" y="1848" as="sourcePoint" />
            <mxPoint x="734" y="2028" as="targetPoint" />
            <Array as="points" />
          </mxGeometry>
        </mxCell>
        <mxCell id="s84qFgu41w__YCTPZ6JV-86" value="" style="triangle;whiteSpace=wrap;html=1;rotation=-90;" parent="1" vertex="1">
          <mxGeometry x="971" y="1795" width="26" height="26.67" as="geometry" />
        </mxCell>
        <mxCell id="s84qFgu41w__YCTPZ6JV-88" value="" style="endArrow=none;html=1;rounded=0;entryX=-0.003;entryY=1.003;entryDx=0;entryDy=0;entryPerimeter=0;exitX=1;exitY=0.5;exitDx=0;exitDy=0;" parent="1" source="s84qFgu41w__YCTPZ6JV-81" target="s84qFgu41w__YCTPZ6JV-82" edge="1">
          <mxGeometry width="50" height="50" relative="1" as="geometry">
            <mxPoint x="221" y="1385.31" as="sourcePoint" />
            <mxPoint x="340" y="1385.31" as="targetPoint" />
            <Array as="points">
              <mxPoint x="340" y="1467" />
            </Array>
          </mxGeometry>
        </mxCell>
        <mxCell id="5pbb-u6Oynbn8hx0rVK8-9" value="Video" style="swimlane;fontStyle=0;childLayout=stackLayout;horizontal=1;startSize=26;fillColor=none;horizontalStack=0;resizeParent=1;resizeParentMax=0;resizeLast=0;collapsible=1;marginBottom=0;whiteSpace=wrap;html=1;" vertex="1" parent="1">
          <mxGeometry x="1020" y="2210" width="140" height="104" as="geometry" />
        </mxCell>
        <mxCell id="5pbb-u6Oynbn8hx0rVK8-10" value="&lt;div&gt;- duracion: float&lt;/div&gt;&lt;div&gt;&lt;br&gt;&lt;/div&gt;&lt;div&gt;&lt;br&gt;&lt;/div&gt;" style="text;strokeColor=none;fillColor=none;align=left;verticalAlign=top;spacingLeft=4;spacingRight=4;overflow=hidden;rotatable=0;points=[[0,0.5],[1,0.5]];portConstraint=eastwest;whiteSpace=wrap;html=1;" vertex="1" parent="5pbb-u6Oynbn8hx0rVK8-9">
          <mxGeometry y="26" width="140" height="26" as="geometry" />
        </mxCell>
        <mxCell id="5pbb-u6Oynbn8hx0rVK8-11" value="&lt;div&gt;&lt;br&gt;&lt;/div&gt;" style="text;strokeColor=none;fillColor=none;align=left;verticalAlign=top;spacingLeft=4;spacingRight=4;overflow=hidden;rotatable=0;points=[[0,0.5],[1,0.5]];portConstraint=eastwest;whiteSpace=wrap;html=1;" vertex="1" parent="5pbb-u6Oynbn8hx0rVK8-9">
          <mxGeometry y="52" width="140" height="26" as="geometry" />
        </mxCell>
        <mxCell id="5pbb-u6Oynbn8hx0rVK8-12" value="&lt;div&gt;&lt;br&gt;&lt;/div&gt;" style="text;strokeColor=none;fillColor=none;align=left;verticalAlign=top;spacingLeft=4;spacingRight=4;overflow=hidden;rotatable=0;points=[[0,0.5],[1,0.5]];portConstraint=eastwest;whiteSpace=wrap;html=1;" vertex="1" parent="5pbb-u6Oynbn8hx0rVK8-9">
          <mxGeometry y="78" width="140" height="26" as="geometry" />
        </mxCell>
        <mxCell id="5pbb-u6Oynbn8hx0rVK8-23" value="" style="triangle;whiteSpace=wrap;html=1;rotation=-90;" vertex="1" parent="1">
          <mxGeometry x="965" y="2106" width="20" height="26.67" as="geometry" />
        </mxCell>
        <mxCell id="5pbb-u6Oynbn8hx0rVK8-25" value="" style="endArrow=none;html=1;rounded=0;entryX=-0.005;entryY=0.005;entryDx=0;entryDy=0;entryPerimeter=0;exitX=0.5;exitY=0;exitDx=0;exitDy=0;" edge="1" parent="1" source="s84qFgu41w__YCTPZ6JV-31" target="5pbb-u6Oynbn8hx0rVK8-23">
          <mxGeometry width="50" height="50" relative="1" as="geometry">
            <mxPoint x="850" y="2190" as="sourcePoint" />
            <mxPoint x="960" y="2130" as="targetPoint" />
            <Array as="points">
              <mxPoint x="888" y="2130" />
            </Array>
          </mxGeometry>
        </mxCell>
        <mxCell id="5pbb-u6Oynbn8hx0rVK8-26" value="" style="endArrow=none;html=1;rounded=0;entryX=-0.006;entryY=1.015;entryDx=0;entryDy=0;entryPerimeter=0;exitX=0.5;exitY=0;exitDx=0;exitDy=0;" edge="1" parent="1" source="5pbb-u6Oynbn8hx0rVK8-9" target="5pbb-u6Oynbn8hx0rVK8-23">
          <mxGeometry width="50" height="50" relative="1" as="geometry">
            <mxPoint x="860" y="2200" as="sourcePoint" />
            <mxPoint x="972" y="2139" as="targetPoint" />
            <Array as="points">
              <mxPoint x="1090" y="2130" />
            </Array>
          </mxGeometry>
        </mxCell>
        <mxCell id="5pbb-u6Oynbn8hx0rVK8-27" value="" style="endArrow=none;html=1;rounded=0;entryX=0;entryY=0.5;entryDx=0;entryDy=0;exitX=0.577;exitY=0.01;exitDx=0;exitDy=0;exitPerimeter=0;" edge="1" parent="1" source="s84qFgu41w__YCTPZ6JV-36" target="s84qFgu41w__YCTPZ6JV-86">
          <mxGeometry width="50" height="50" relative="1" as="geometry">
            <mxPoint x="960" y="2010" as="sourcePoint" />
            <mxPoint x="1010" y="1960" as="targetPoint" />
          </mxGeometry>
        </mxCell>
        <mxCell id="5pbb-u6Oynbn8hx0rVK8-29" value="*" style="text;html=1;align=center;verticalAlign=middle;resizable=0;points=[];autosize=1;strokeColor=none;fillColor=none;" vertex="1" parent="1">
          <mxGeometry x="892" y="1356.67" width="30" height="30" as="geometry" />
        </mxCell>
        <mxCell id="5pbb-u6Oynbn8hx0rVK8-30" value="*" style="text;html=1;align=center;verticalAlign=middle;resizable=0;points=[];autosize=1;strokeColor=none;fillColor=none;" vertex="1" parent="1">
          <mxGeometry x="935" y="1420" width="30" height="30" as="geometry" />
        </mxCell>
        <mxCell id="5pbb-u6Oynbn8hx0rVK8-33" value="" style="triangle;whiteSpace=wrap;html=1;rotation=-180;fillColor=#030203;" vertex="1" parent="1">
          <mxGeometry x="850" y="1366" width="10" height="10" as="geometry" />
        </mxCell>
        <mxCell id="5pbb-u6Oynbn8hx0rVK8-34" value="Tiene" style="text;html=1;align=center;verticalAlign=middle;resizable=0;points=[];autosize=1;strokeColor=none;fillColor=none;rotation=1;" vertex="1" parent="1">
          <mxGeometry x="830" y="1346" width="50" height="20" as="geometry" />
        </mxCell>
        <mxCell id="5pbb-u6Oynbn8hx0rVK8-37" value="" style="endArrow=none;html=1;rounded=0;entryX=0.25;entryY=1;entryDx=0;entryDy=0;exitX=0.999;exitY=0.255;exitDx=0;exitDy=0;exitPerimeter=0;" edge="1" parent="1" source="s84qFgu41w__YCTPZ6JV-7" target="s84qFgu41w__YCTPZ6JV-41">
          <mxGeometry width="50" height="50" relative="1" as="geometry">
            <mxPoint x="1060" y="1390" as="sourcePoint" />
            <mxPoint x="690" y="2080" as="targetPoint" />
            <Array as="points">
              <mxPoint x="1420" y="1400" />
              <mxPoint x="1430" y="2400" />
              <mxPoint x="700" y="2400" />
            </Array>
          </mxGeometry>
        </mxCell>
        <mxCell id="5pbb-u6Oynbn8hx0rVK8-42" value="M-U" style="swimlane;fontStyle=0;childLayout=stackLayout;horizontal=1;startSize=26;fillColor=none;horizontalStack=0;resizeParent=1;resizeParentMax=0;resizeLast=0;collapsible=1;marginBottom=0;whiteSpace=wrap;html=1;" vertex="1" parent="1">
          <mxGeometry x="680" y="1573" width="140" height="52" as="geometry" />
        </mxCell>
        <mxCell id="5pbb-u6Oynbn8hx0rVK8-43" value="visto?: bool" style="text;strokeColor=none;fillColor=none;align=left;verticalAlign=top;spacingLeft=4;spacingRight=4;overflow=hidden;rotatable=0;points=[[0,0.5],[1,0.5]];portConstraint=eastwest;whiteSpace=wrap;html=1;" vertex="1" parent="5pbb-u6Oynbn8hx0rVK8-42">
          <mxGeometry y="26" width="140" height="26" as="geometry" />
        </mxCell>
        <mxCell id="5pbb-u6Oynbn8hx0rVK8-44" value="" style="endArrow=none;dashed=1;html=1;rounded=0;exitX=1.004;exitY=0.058;exitDx=0;exitDy=0;exitPerimeter=0;" edge="1" parent="1" source="5pbb-u6Oynbn8hx0rVK8-43">
          <mxGeometry width="50" height="50" relative="1" as="geometry">
            <mxPoint x="830" y="1600" as="sourcePoint" />
            <mxPoint x="980" y="1600" as="targetPoint" />
          </mxGeometry>
        </mxCell>
        <mxCell id="5pbb-u6Oynbn8hx0rVK8-45" value="" style="endArrow=none;html=1;rounded=0;exitX=1.005;exitY=0.297;exitDx=0;exitDy=0;exitPerimeter=0;entryX=0.006;entryY=-0.067;entryDx=0;entryDy=0;entryPerimeter=0;" edge="1" parent="1" source="s84qFgu41w__YCTPZ6JV-16" target="s84qFgu41w__YCTPZ6JV-2">
          <mxGeometry width="50" height="50" relative="1" as="geometry">
            <mxPoint x="590" y="1260" as="sourcePoint" />
            <mxPoint x="910" y="1242" as="targetPoint" />
          </mxGeometry>
        </mxCell>
        <mxCell id="5pbb-u6Oynbn8hx0rVK8-46" value="" style="triangle;whiteSpace=wrap;html=1;rotation=-180;fillColor=#030203;" vertex="1" parent="1">
          <mxGeometry x="715" y="1209" width="20" height="20" as="geometry" />
        </mxCell>
        <mxCell id="5pbb-u6Oynbn8hx0rVK8-47" value="Es administrador" style="text;html=1;align=center;verticalAlign=middle;resizable=0;points=[];autosize=1;strokeColor=none;fillColor=none;rotation=1;" vertex="1" parent="1">
          <mxGeometry x="665" y="1175" width="120" height="30" as="geometry" />
        </mxCell>
        <mxCell id="5pbb-u6Oynbn8hx0rVK8-48" value="1 .. *" style="text;html=1;align=center;verticalAlign=middle;resizable=0;points=[];autosize=1;strokeColor=none;fillColor=none;" vertex="1" parent="1">
          <mxGeometry x="874" y="1214" width="50" height="30" as="geometry" />
        </mxCell>
        <mxCell id="5pbb-u6Oynbn8hx0rVK8-49" value="*" style="text;html=1;align=center;verticalAlign=middle;resizable=0;points=[];autosize=1;strokeColor=none;fillColor=none;" vertex="1" parent="1">
          <mxGeometry x="310" y="1214" width="30" height="30" as="geometry" />
        </mxCell>
        <mxCell id="5pbb-u6Oynbn8hx0rVK8-50" value="*" style="text;html=1;align=center;verticalAlign=middle;resizable=0;points=[];autosize=1;strokeColor=none;fillColor=none;" vertex="1" parent="1">
          <mxGeometry x="705" y="2080" width="30" height="30" as="geometry" />
        </mxCell>
        <mxCell id="5pbb-u6Oynbn8hx0rVK8-51" value="*" style="text;html=1;align=center;verticalAlign=middle;resizable=0;points=[];autosize=1;strokeColor=none;fillColor=none;" vertex="1" parent="1">
          <mxGeometry x="1050" y="1366" width="30" height="30" as="geometry" />
        </mxCell>
        <mxCell id="5pbb-u6Oynbn8hx0rVK8-52" value="" style="triangle;whiteSpace=wrap;html=1;rotation=90;fillColor=#030203;" vertex="1" parent="1">
          <mxGeometry x="1360" y="1605" width="20" height="20" as="geometry" />
        </mxCell>
        <mxCell id="5pbb-u6Oynbn8hx0rVK8-53" value="Tiene" style="text;html=1;align=center;verticalAlign=middle;resizable=0;points=[];autosize=1;strokeColor=none;fillColor=none;rotation=90;" vertex="1" parent="1">
          <mxGeometry x="1370" y="1600" width="50" height="20" as="geometry" />
        </mxCell>
        <mxCell id="5pbb-u6Oynbn8hx0rVK8-54" value="1..*" style="text;html=1;align=center;verticalAlign=middle;resizable=0;points=[];autosize=1;strokeColor=none;fillColor=none;" vertex="1" parent="1">
          <mxGeometry x="850" y="1754" width="40" height="30" as="geometry" />
        </mxCell>
        <mxCell id="5pbb-u6Oynbn8hx0rVK8-55" value="1" style="text;html=1;align=center;verticalAlign=middle;resizable=0;points=[];autosize=1;strokeColor=none;fillColor=none;" vertex="1" parent="1">
          <mxGeometry x="560" y="1366" width="30" height="30" as="geometry" />
        </mxCell>
        <mxCell id="s84qFgu41w__YCTPZ6JV-26" value="&lt;div&gt;&amp;lt;&amp;lt;dataType&amp;gt;&amp;gt;&lt;/div&gt;&lt;div&gt;DtImg&lt;/div&gt;" style="swimlane;fontStyle=0;childLayout=stackLayout;horizontal=1;startSize=26;fillColor=none;horizontalStack=0;resizeParent=1;resizeParentMax=0;resizeLast=0;collapsible=1;marginBottom=0;whiteSpace=wrap;html=1;" parent="1" vertex="1">
          <mxGeometry x="90" y="1746" width="140" height="52" as="geometry" />
        </mxCell>
        <mxCell id="5pbb-u6Oynbn8hx0rVK8-58" value="" style="swimlane;startSize=0;" vertex="1" parent="1">
          <mxGeometry x="60" y="1695" width="440" height="265" as="geometry" />
        </mxCell>
        <mxCell id="s84qFgu41w__YCTPZ6JV-55" value="&#xa;&lt;&lt;dataType&gt;&gt;&#xa;DtFechaHora&#xa;" style="swimlane;fontStyle=0;childLayout=stackLayout;horizontal=1;startSize=26;fillColor=none;horizontalStack=0;resizeParent=1;resizeParentMax=0;resizeLast=0;collapsible=1;marginBottom=0;" parent="5pbb-u6Oynbn8hx0rVK8-58" vertex="1">
          <mxGeometry x="210" y="45" width="190" height="156" as="geometry" />
        </mxCell>
        <mxCell id="s84qFgu41w__YCTPZ6JV-56" value="dia : int" style="text;strokeColor=none;fillColor=none;align=left;verticalAlign=top;spacingLeft=4;spacingRight=4;overflow=hidden;rotatable=0;points=[[0,0.5],[1,0.5]];portConstraint=eastwest;" parent="s84qFgu41w__YCTPZ6JV-55" vertex="1">
          <mxGeometry y="26" width="190" height="26" as="geometry" />
        </mxCell>
        <mxCell id="s84qFgu41w__YCTPZ6JV-57" value="mes : int" style="text;strokeColor=none;fillColor=none;align=left;verticalAlign=top;spacingLeft=4;spacingRight=4;overflow=hidden;rotatable=0;points=[[0,0.5],[1,0.5]];portConstraint=eastwest;" parent="s84qFgu41w__YCTPZ6JV-55" vertex="1">
          <mxGeometry y="52" width="190" height="26" as="geometry" />
        </mxCell>
        <mxCell id="s84qFgu41w__YCTPZ6JV-58" value="anio : int" style="text;strokeColor=none;fillColor=none;align=left;verticalAlign=top;spacingLeft=4;spacingRight=4;overflow=hidden;rotatable=0;points=[[0,0.5],[1,0.5]];portConstraint=eastwest;" parent="s84qFgu41w__YCTPZ6JV-55" vertex="1">
          <mxGeometry y="78" width="190" height="26" as="geometry" />
        </mxCell>
        <mxCell id="s84qFgu41w__YCTPZ6JV-59" value="hora : int" style="text;strokeColor=none;fillColor=none;align=left;verticalAlign=top;spacingLeft=4;spacingRight=4;overflow=hidden;rotatable=0;points=[[0,0.5],[1,0.5]];portConstraint=eastwest;" parent="s84qFgu41w__YCTPZ6JV-55" vertex="1">
          <mxGeometry y="104" width="190" height="26" as="geometry" />
        </mxCell>
        <mxCell id="s84qFgu41w__YCTPZ6JV-60" value="minuto : int" style="text;strokeColor=none;fillColor=none;align=left;verticalAlign=top;spacingLeft=4;spacingRight=4;overflow=hidden;rotatable=0;points=[[0,0.5],[1,0.5]];portConstraint=eastwest;" parent="s84qFgu41w__YCTPZ6JV-55" vertex="1">
          <mxGeometry y="130" width="190" height="26" as="geometry" />
        </mxCell>
        <mxCell id="5pbb-u6Oynbn8hx0rVK8-65" value="" style="triangle;whiteSpace=wrap;html=1;rotation=-90;fillColor=#030203;" vertex="1" parent="1">
          <mxGeometry x="560" y="1530" width="20" height="20" as="geometry" />
        </mxCell>
        <mxCell id="5pbb-u6Oynbn8hx0rVK8-66" value="Tiene" style="text;html=1;align=center;verticalAlign=middle;resizable=0;points=[];autosize=1;strokeColor=none;fillColor=none;rotation=90;" vertex="1" parent="1">
          <mxGeometry x="570" y="1530" width="50" height="20" as="geometry" />
        </mxCell>
        <mxCell id="5pbb-u6Oynbn8hx0rVK8-68" value="" style="endArrow=diamondThin;endFill=1;endSize=24;html=1;rounded=0;entryX=0.5;entryY=1;entryDx=0;entryDy=0;" edge="1" parent="1" target="s84qFgu41w__YCTPZ6JV-9">
          <mxGeometry width="160" relative="1" as="geometry">
            <mxPoint x="890" y="1760" as="sourcePoint" />
            <mxPoint x="810" y="1540" as="targetPoint" />
            <Array as="points">
              <mxPoint x="550" y="1760" />
            </Array>
          </mxGeometry>
        </mxCell>
      </root>
    </mxGraphModel>
  </diagram>
</mxfile>
